<svg width="495" height="201" viewBox="0 0 495 201" fill="none" xmlns="http://www.w3.org/2000/svg">
<path fill-rule="evenodd" clip-rule="evenodd" d="M0 0H164.935V198.006H0V0Z" fill="#D2202B"/>
<path d="M39.7751 181.434H53.0941L54.47 171.105H63.808L65.0371 181.434H79.0069L68.1515 123.323H50.489L39.7751 181.434ZM59.2469 132.341H59.3919L62.5045 160.779H55.8459L59.2486 132.341H59.2469ZM82.4803 181.434H110.275V170.233H95.7992V123.323H82.4803V181.434ZM114.111 161.724V167.98C114.111 174.016 118.164 182.391 131.338 182.391C145.234 182.391 149.432 173.142 149.432 167.543C149.432 155.832 143.281 152.997 138.359 148.631C132.93 144.558 127.285 140.557 127.285 137.068C127.285 134.377 129.023 132.704 131.844 132.704C135.609 132.704 136.043 136.194 136.043 139.105V142.232H148.491V136.997C148.491 128.051 143.424 122.376 131.842 122.376C121.203 122.376 114.832 127.249 114.832 138.67C114.832 147.542 120.189 150.742 125.546 155.179C130.829 159.033 136.113 162.452 136.113 167.544C136.113 170.09 134.522 172.053 131.481 172.053C127.716 172.053 126.995 169.143 126.995 166.016V161.724H114.111Z" fill="#FEFEFE"/>
<path d="M306.521 36.9093L301.948 28.6082H300.665V36.9093H295.307V14.9167H304.297C306.029 14.9167 307.509 15.221 308.729 15.8263C309.951 16.4315 310.864 17.2608 311.469 18.3158C312.076 19.3708 312.379 20.5461 312.379 21.8402C312.379 23.3032 311.966 24.6089 311.141 25.7559C310.317 26.9045 309.1 27.7204 307.492 28.2002L312.567 36.9077H306.521V36.9093ZM300.665 24.8179H303.983C304.966 24.8179 305.702 24.5788 306.193 24.0973C306.683 23.6175 306.929 22.9387 306.929 22.0609C306.929 21.2266 306.685 20.5679 306.193 20.088C305.702 19.6082 304.966 19.3658 303.983 19.3658H300.665V24.8179ZM321.476 19.2103V23.6593H328.65V27.7956H321.476V32.6208H329.589V36.911H316.12V14.9184H329.589V19.2103H321.476ZM341.696 14.9184C344.015 14.9184 346.039 15.3799 347.773 16.2978C349.505 17.2173 350.848 18.5064 351.799 20.1683C352.748 21.8285 353.223 23.7445 353.223 25.9164C353.223 28.0682 352.748 29.9792 351.799 31.6511C350.848 33.3214 349.5 34.6171 347.758 35.535C346.014 36.4546 343.993 36.9144 341.696 36.9144H333.456V14.9218H341.696V14.9184ZM341.35 32.2731C343.376 32.2731 344.953 31.7213 346.081 30.6128C347.208 29.506 347.773 27.9411 347.773 25.913C347.773 23.8867 347.21 22.3117 346.081 21.1831C344.955 20.0563 343.376 19.4912 341.35 19.4912H338.812V32.2714H341.35V32.2731ZM361.976 19.2103V23.6593H369.15V27.7956H361.976V32.6208H370.089V36.911H356.62V14.9184H370.089V19.2103H361.976ZM388.273 14.9184V19.2103H379.314V23.8465H386.02V28.013H379.314V36.911H373.958V14.9184H388.273ZM396.839 14.9184V36.911H391.483V14.9184H396.839ZM420.786 36.911H415.428L406.47 23.3466V36.911H401.112V14.9184H406.47L415.428 28.5463V14.9184H420.786V36.911ZM430.415 14.9184V36.911H425.059V14.9184H430.415ZM454.361 36.911H449.005L440.046 23.3466V36.911H434.69V14.9184H440.046L449.005 28.5463V14.9184H454.361V36.911ZM473.234 21.8737C472.836 21.143 472.268 20.5846 471.525 20.1967C470.783 19.8105 469.912 19.6182 468.911 19.6182C467.177 19.6182 465.788 20.1867 464.743 21.3269C463.698 22.4638 463.177 23.9836 463.177 25.8846C463.177 27.911 463.725 29.491 464.822 30.6296C465.918 31.7682 467.428 32.3383 469.349 32.3383C470.664 32.3383 471.776 32.0039 472.684 31.3351C473.593 30.6663 474.255 29.7067 474.675 28.4527H467.878V24.5069H479.53V29.4876C479.134 30.8252 478.46 32.0674 477.509 33.2144C476.559 34.363 475.354 35.2926 473.893 36.0032C472.43 36.7137 470.78 37.0682 468.942 37.0682C466.771 37.0682 464.833 36.595 463.133 35.6437C461.43 34.694 460.106 33.3732 459.154 31.6812C458.205 29.9892 457.73 28.0598 457.73 25.888C457.73 23.7145 458.205 21.7784 459.154 20.0763C460.106 18.3743 461.426 17.0485 463.116 16.0988C464.81 15.1475 466.739 14.6743 468.912 14.6743C471.544 14.6743 473.76 15.3113 475.568 16.5853C477.375 17.8593 478.57 19.6232 479.155 21.8787H473.236L473.234 21.8737Z" fill="#2B2A29"/>
<path d="M282.304 50.4219V149.701H258.122V50.4219H282.304ZM363.398 132.164H326.346L320.408 149.701H295.095L331.014 50.4219H359.013L394.932 149.701H369.336L363.398 132.164ZM357.175 113.497L344.871 77.1495L332.709 113.497H357.175ZM443.502 150.691C436.243 150.691 429.738 149.512 423.986 147.155C418.235 144.799 413.639 141.31 410.199 136.69C406.757 132.071 404.943 126.508 404.754 120.001H430.491C430.868 123.678 432.142 126.483 434.311 128.416C436.479 130.35 439.306 131.317 442.795 131.317C446.377 131.317 449.204 130.492 451.279 128.841C453.354 127.19 454.39 124.905 454.39 121.982C454.39 119.531 453.566 117.503 451.916 115.9C450.266 114.298 448.24 112.977 445.834 111.941C443.432 110.904 440.015 109.725 435.583 108.405C429.173 106.425 423.939 104.445 419.885 102.464C415.831 100.485 412.344 97.5621 409.421 93.6966C406.499 89.8311 405.038 84.7868 405.038 78.5639C405.038 69.3248 408.383 62.087 415.079 56.8539C421.772 51.6207 430.492 49.0042 441.24 49.0042C452.175 49.0042 460.99 51.6207 467.682 56.8539C474.378 62.0853 477.959 69.37 478.432 78.7044H452.27C452.081 75.4976 450.903 72.9763 448.735 71.1372C446.566 69.2981 443.784 68.3802 440.391 68.3802C437.469 68.3802 435.111 69.1576 433.321 70.7142C431.53 72.2691 430.636 74.5095 430.636 77.4303C430.636 80.6371 432.144 83.135 435.161 84.9256C438.177 86.7179 442.892 88.6507 449.303 90.7239C455.712 92.8924 460.922 94.9656 464.929 96.9468C468.934 98.9264 472.4 101.802 475.324 105.572C478.246 109.344 479.707 114.199 479.707 120.138C479.707 125.796 478.27 130.934 475.394 135.555C472.519 140.175 468.348 143.851 462.879 146.586C457.411 149.32 450.953 150.688 443.505 150.688L443.502 150.691Z" fill="#2B2A29"/>
<path d="M282.834 162.993V169.228H274.369V194.944H266.587V169.228H258.123V162.993H282.834ZM303.607 194.944L296.962 182.882H295.096V194.944H287.314V162.993H300.374C302.893 162.993 305.04 163.434 306.813 164.314C308.587 165.193 309.916 166.399 310.794 167.93C311.675 169.463 312.115 171.171 312.115 173.051C312.115 175.175 311.516 177.072 310.317 178.741C309.12 180.411 307.352 181.593 305.016 182.292L312.387 194.944H303.605H303.607ZM295.096 177.375H299.921C301.345 177.375 302.415 177.026 303.129 176.328C303.843 175.63 304.199 174.643 304.199 173.369C304.199 172.155 303.843 171.199 303.129 170.502C302.415 169.803 301.347 169.453 299.921 169.453H295.096V177.373V177.375ZM337.438 189.299H325.515L323.603 194.944H315.456L327.017 162.993H336.027L347.586 194.944H339.349L337.437 189.299H337.438ZM335.436 183.292L331.477 171.594L327.563 183.292H335.437H335.436ZM359.439 162.993V194.944H351.657V162.993H359.439ZM394.228 194.944H386.448L373.431 175.237V194.944H365.651V162.993H373.431L386.448 182.792V162.993H394.228V194.944ZM408.221 162.993V194.944H400.439V162.993H408.221ZM443.01 194.944H435.228L422.213 175.237V194.944H414.431V162.993H422.213L435.228 182.792V162.993H443.01V194.944ZM470.427 173.098C469.85 172.035 469.023 171.224 467.946 170.664C466.87 170.102 465.604 169.821 464.146 169.821C461.629 169.821 459.611 170.647 458.093 172.302C456.577 173.956 455.818 176.163 455.818 178.925C455.818 181.868 456.613 184.165 458.207 185.82C459.8 187.474 461.991 188.299 464.782 188.299C466.694 188.299 468.309 187.815 469.628 186.843C470.949 185.873 471.912 184.477 472.518 182.657H462.643V176.922H479.573V184.158C478.997 186.101 478.019 187.905 476.638 189.573C475.255 191.244 473.505 192.593 471.382 193.625C469.259 194.658 466.86 195.173 464.191 195.173C461.035 195.173 458.222 194.482 455.749 193.101C453.277 191.72 451.349 189.803 449.97 187.345C448.589 184.887 447.9 182.08 447.9 178.925C447.9 175.768 448.591 172.954 449.97 170.482C451.351 168.009 453.268 166.083 455.727 164.702C458.185 163.321 460.992 162.632 464.146 162.632C467.97 162.632 471.193 163.558 473.817 165.409C476.442 167.258 478.177 169.823 479.027 173.1H470.427V173.098Z" fill="#2B2A29"/>
<path fill-rule="evenodd" clip-rule="evenodd" d="M270.222 8C279.957 8 287.846 15.8915 287.846 25.6238C287.846 35.3578 279.957 43.2477 270.222 43.2477C260.491 43.2477 252.602 35.3578 252.602 25.6238C252.602 15.8915 260.491 8 270.222 8Z" fill="#D2202B"/>
<path fill-rule="evenodd" clip-rule="evenodd" d="M258.715 17.9246L258.672 18.8391C259.807 18.2238 260.9 17.7624 261.993 18.0717C263.979 18.9077 264.598 20.914 264.524 23.5122C265.357 21.6262 268.806 15.9667 270.168 20.5629C270.213 20.7167 270.23 20.8421 270.237 21.0026C270.384 23.9285 270.031 24.1475 270.038 25.261C271.501 22.8216 272.925 20.4977 274.099 19.4694C275.279 18.3108 276.875 20.404 276.588 21.5627C275.969 24.0488 275.078 26.2625 275.077 28.1685C275.214 30.7851 275.899 31.8501 277.601 30.8503L285.274 20.1583C285.592 19.8389 285.871 20.2853 285.59 20.8404C283.511 24.4234 281.03 28.008 278.604 31.5959C276.071 35.1839 272.36 32.6509 272.385 28.7637C272.33 27.5599 272.574 26.3812 272.994 25.1523C273.121 24.5103 272.781 24.3414 272.507 24.7594C271.278 27.177 270.297 29.5545 269.368 31.8568C268.535 33.3164 267.104 31.6662 266.706 30.541C266.808 28.4912 267.473 26.3628 267.99 23.7345C268.741 19.5898 266.673 22.2599 265.979 24.3297C265.255 27.2222 264.546 30.6212 263.757 31.9771C262.804 33.4083 260.848 33.0606 259.314 31.7414C257.396 30.1731 255.995 28.3842 254.803 26.3427C254.696 26.1287 254.681 25.7525 255.042 25.9582C256.176 27.2289 257.552 28.1952 259.357 29.1315C261.395 29.9575 263.272 28.3725 262.296 27.366C261.318 26.5584 260.487 25.7626 259.394 25.1908C259.319 25.149 259.319 25.037 259.441 25.0186C261.395 25.0102 262.336 24.736 262.635 23.9335C263.112 22.9036 263.205 21.7349 262.535 20.9608C262.075 20.5161 261.698 20.5779 260.992 21.1581C259.827 22.1646 259.797 22.3719 258.728 22.4889C257.821 22.5174 257.172 20.9541 257.547 19.4544C257.834 18.8291 258.122 18.2874 258.713 17.9262L258.715 17.9246Z" fill="#FEFEFE"/>
<path d="M215.505 12.1313V198" stroke="black" stroke-width="0.75577" stroke-miterlimit="22.9256"/>
</svg>
